<svg xmlns="http://www.w3.org/2000/svg" viewBox="0 0 720 587.08"><defs><style>.cls-1{fill:#d8cfb6;stroke:#000;stroke-width:9.15px;}.cls-1,.cls-4,.cls-7,.cls-8,.cls-9{stroke-miterlimit:10;}.cls-2,.cls-7{fill:#fff;}.cls-3{fill:#d8cbad;}.cls-4{fill:none;stroke:#a37d1f;}.cls-5{fill:#0f26f7;}.cls-6,.cls-8,.cls-9{fill:#69eff9;}.cls-7,.cls-8,.cls-9{stroke:#0f26f7;}.cls-7{stroke-width:5px;}.cls-8{stroke-width:8px;}.cls-9{stroke-width:7.45px;}</style></defs><g id="Layer_6" data-name="Layer 6"><path class="cls-1" d="M672.21,220.6c-3.85-10.34-8.5-20.42-13.34-30.37-4.4-9-8.49-18.64-14.51-26.83-12.23-16.66-31.24-25.45-51.74-29.28-19.62-3.67-43-2.7-60.65-10.93-6.65-3.1-13.05-7.47-16.71-12.88-4.58-6.75-4.5-14-2.27-22.43,2.08-7.93,4.68-16.62,9.78-21.63A10.26,10.26,0,0,1,531.43,63c4.42.24,8.79,2,12.71,4a64.23,64.23,0,0,1,12.41,7.57c3.35,2.78,4.76,5.41,6.72,8.39-.79-1.2-.22,0,.18.91-1,0-3,0-3.53-.06a33,33,0,0,1-5.32-1c-17.55-4-25,21.84-7.46,25.88,10.11,2.32,21.75,3.6,31.27-1.41,11.76-6.19,15.68-19.55,11.92-31.44-6.67-21.1-33.06-36.81-55-39.28-25-2.82-40.21,15.89-47.08,36.49-3.8,11.42-6.23,23.31-3.86,35.24,2,10,8.25,19.31,15.85,26.24,17.44,15.89,40.59,20,63.66,22.64,18.41,2.1,41,3.55,54.25,17.45,7.16,7.54,11.16,18.18,15.63,27.3a262.38,262.38,0,0,1,13.12,30.59c6.49,19,9.31,39.06,2.71,58.33-2.43,7.1-7.68,17.9-14.83,21.27-4.41,2.07-10.59.93-15.25.59-6.89-.5-13.77-1-20.67-1.4-28.25-1.56-57.1-.9-84.31,7.28-17.17,5.16-9.84,31.07,7.46,25.87,21.1-6.34,42.85-7.52,64.84-6.85,11.56.36,23.07,1.3,34.6,2.08,10.6.71,21.49-.25,30.38-6.34,17.7-12.11,26.18-33.62,28.8-53.55S679.22,239.45,672.21,220.6Z"/></g><g id="Layer_4" data-name="Layer 4"><path class="cls-2" d="M508.74,245.77c-11.64-19.55-24.13-38.66-37.64-57-5.32-7.21-10.61-14.91-17.18-21.1-10-9.43-20.13-15.33-32.91-20a82.24,82.24,0,0,0-20.42-4.51,46.82,46.82,0,0,0-24-6.5,50.27,50.27,0,0,0-30.31,10.69c-1.27.3-2.54.62-3.8,1a58.7,58.7,0,0,0,.59-13c-1.15-17.43-2.83-34.85-4.45-52.24-1.23-13.13-4.59-24.68-14.21-34.3C316,40.33,302.23,34,290.15,34.54c-12.55.56-25.56,4.68-34.3,14.2a67.51,67.51,0,0,0-5.46,6.81c-3.07-7.67-8.17-13.94-16.36-16.65s-17.25-.71-24.62,3.12c-18,9.35-13.17,29.77-10,45.84,1.14,5.8,1.72,12.54,3.4,18.67l-33.29,5.9c-7.78,1.38-15.59,2.66-23.31,4.37-11.2,2.49-21.48,6.51-32,11.24-17,7.64-31.5,20.22-45.79,31.94a29.52,29.52,0,0,0-5.25,5.83,11.12,11.12,0,0,0-9.72,5.7,40.36,40.36,0,0,0-5.36,15.11C44.21,191,41,196,42.7,202.08c1.84,6.69,9.24,11.35,14.13,15.75a13.6,13.6,0,0,0,4.88,2.82,34.53,34.53,0,0,0,6.7,7.92c17.87,15.35,36,30.71,55.63,43.75a200.24,200.24,0,0,0,25.41,14.34c7.43,3.5,14.71,7,21.53,11.43a136.84,136.84,0,0,1,12.33,12.58c-3.33,9.3-4.55,19.72-1.18,28.94a91,91,0,0,0,13.5,25.19.45.45,0,0,0,0,.11c-2.81,13.13,4.08,22.9,13.57,30.65a128.38,128.38,0,0,0,6.29,16.79A195.79,195.79,0,0,0,225.82,431a13.47,13.47,0,0,0,.33,3.14c2,8.84,4.84,17.66,10.93,24.49,2.25,9.53,5.23,18.86,11.23,26.81l.27.33a34.23,34.23,0,0,0,9.3,20.88c2.31,7.63,10.63,9.93,16.86,6.87.45,0,.91.07,1.39.07,13.43,0,15.19-18.14,5.26-22.87a62.25,62.25,0,0,0-2.42-7c0-5.81.56-11.65,1.11-17.43.94-10,1.59-19.71.83-29.58a48.41,48.41,0,0,0,9.75-5l.3.18c12.88-19.68,45.14,5.8,56.38,21.63l1.84.14a100.4,100.4,0,0,0,10,4.34,11.49,11.49,0,0,0,.29,4.2,11,11,0,0,0,4.74,6.59,64.5,64.5,0,0,1-.81,7.17,17.54,17.54,0,0,0,.09,5.42q-1.1,2.25-2.09,4.59c-2.48,5.87-3.69,12.46-6.59,18.1a17,17,0,0,1-9.76,8.53c-12.57,4.21-10.78,23.45,3.19,23.57,9.86.09,21.86,7.42,29.29-2.34,3.13-4.11,3.21-9.44,3.91-14.39l2.28-16.11a16,16,0,0,0-.59-7.39,70.21,70.21,0,0,1,9.07-15.67c3.37-4.47,6.93-8.79,9.24-13.76,3.94.46,7.88.88,11.78,1.28a134,134,0,0,0,42-2.46A82.35,82.35,0,0,0,474,458.73a21.88,21.88,0,0,0,15.53,15.92c10.19,2.82,18.67-8.57,13.55-17.62l-2-3.48a13.33,13.33,0,0,0-1.14-1.68c.06-.08.13-.15.19-.22a99.32,99.32,0,0,0,10.17-13.95,93,93,0,0,0,9.66-22.79c.73-1.37,1.43-2.75,2.08-4.14,6.17-13,10.9-26.13,13.39-40.31,1.6-9.12,2.71-18.34,3.88-27.52.68-5.36,1.56-10.8,1.58-16.22C541,297.13,523.41,270.38,508.74,245.77Zm-350.5-93.61a4.81,4.81,0,0,1-2.9-.89,5.06,5.06,0,0,1-1.05.1c-6.45,0-6.44-10,0-10a4.7,4.7,0,0,1,2.89.9,5.22,5.22,0,0,1,1.06-.11C164.69,142.16,164.68,152.16,158.24,152.16Zm227.11,123c-2.58,1.54-5,3.14-7.59,4.61-.81.24-1.63.45-2.45.66-.8,0-1.6,0-2.41,0-.74-.2-1.47-.4-2.21-.62-.85-.47-1.69-1-2.51-1.46-.88-.85-1.73-1.71-2.56-2.6a60,60,0,0,0-6-7.47,62,62,0,0,0-8.49-7.15,112,112,0,0,0,11.73-9.12c3.89-3.5,7-7.71,10.36-11.65l.33-.07c1.42-.14,2.84-.26,4.26-.37h.42a45.13,45.13,0,0,0,5.18-.31c1.7-.06,3.39-.1,5.08-.07.5.54,1,1.09,1.48,1.65,6.42,8.73,12.53,17.71,18.43,26.81A52.31,52.31,0,0,0,385.35,275.19Z"/><path class="cls-3" d="M508.74,245.77c-11.64-19.55-24.13-38.66-37.64-57-5.32-7.21-10.61-14.91-17.18-21.1-10-9.43-20.13-15.33-32.91-20a82.24,82.24,0,0,0-20.42-4.51,46.82,46.82,0,0,0-24-6.5,50.27,50.27,0,0,0-30.31,10.69c-1.27.3-2.54.62-3.8,1a58.7,58.7,0,0,0,.59-13c-1.15-17.43-2.83-34.85-4.45-52.24-1.23-13.13-4.59-24.68-14.21-34.3C316,40.33,302.23,34,290.15,34.54c-12.55.56-25.56,4.68-34.3,14.2a67.51,67.51,0,0,0-5.46,6.81c-3.07-7.67-8.17-13.94-16.36-16.65s-17.25-.71-24.62,3.12c-18,9.35-13.17,29.77-10,45.84,1.14,5.8,1.72,12.54,3.4,18.67l-33.29,5.9c-7.78,1.38-15.59,2.66-23.31,4.37-11.2,2.49-21.48,6.51-32,11.24-17,7.64-31.5,20.22-45.79,31.94a29.52,29.52,0,0,0-5.25,5.83,11.12,11.12,0,0,0-9.72,5.7,40.36,40.36,0,0,0-5.36,15.11C44.21,191,41,196,42.7,202.08c1.84,6.69,9.24,11.35,14.13,15.75a13.6,13.6,0,0,0,4.88,2.82,34.53,34.53,0,0,0,6.7,7.92c17.87,15.35,36,30.71,55.63,43.75a200.24,200.24,0,0,0,25.41,14.34c7.43,3.5,14.71,7,21.53,11.43a136.84,136.84,0,0,1,12.33,12.58c-3.33,9.3-4.55,19.72-1.18,28.94a91,91,0,0,0,13.5,25.19.45.45,0,0,0,0,.11c-2.81,13.13,4.08,22.9,13.57,30.65a128.38,128.38,0,0,0,6.29,16.79A195.79,195.79,0,0,0,225.82,431a13.47,13.47,0,0,0,.33,3.14c2,8.84,4.84,17.66,10.93,24.49,2.25,9.53,5.23,18.86,11.23,26.81l.27.33a34.23,34.23,0,0,0,9.3,20.88c2.31,7.63,10.63,9.93,16.86,6.87.45,0,.91.07,1.39.07,13.43,0,15.19-18.14,5.26-22.87a62.25,62.25,0,0,0-2.42-7c0-5.81.56-11.65,1.11-17.43.94-10,1.59-19.71.83-29.58a48.41,48.41,0,0,0,9.75-5l.3.18c12.88-19.68,45.14,5.8,56.38,21.63l1.84.14a100.4,100.4,0,0,0,10,4.34,11.49,11.49,0,0,0,.29,4.2,11,11,0,0,0,4.74,6.59,64.5,64.5,0,0,1-.81,7.17,17.54,17.54,0,0,0,.09,5.42q-1.1,2.25-2.09,4.59c-2.48,5.87-3.69,12.46-6.59,18.1a17,17,0,0,1-9.76,8.53c-12.57,4.21-10.78,23.45,3.19,23.57,9.86.09,21.86,7.42,29.29-2.34,3.13-4.11,3.21-9.44,3.91-14.39l2.28-16.11a16,16,0,0,0-.59-7.39,70.21,70.21,0,0,1,9.07-15.67c3.37-4.47,6.93-8.79,9.24-13.76,3.94.46,7.88.88,11.78,1.28a134,134,0,0,0,42-2.46A82.35,82.35,0,0,0,474,458.73a21.88,21.88,0,0,0,15.53,15.92c10.19,2.82,18.67-8.57,13.55-17.62l-2-3.48a13.33,13.33,0,0,0-1.14-1.68c.06-.08.13-.15.19-.22a99.32,99.32,0,0,0,10.17-13.95,93,93,0,0,0,9.66-22.79c.73-1.37,1.43-2.75,2.08-4.14,6.17-13,10.9-26.13,13.39-40.31,1.6-9.12,2.71-18.34,3.88-27.52.68-5.36,1.56-10.8,1.58-16.22C541,297.13,523.41,270.38,508.74,245.77Zm-350.5-93.61a4.81,4.81,0,0,1-2.9-.89,5.06,5.06,0,0,1-1.05.1c-6.45,0-6.44-10,0-10a4.7,4.7,0,0,1,2.89.9,5.22,5.22,0,0,1,1.06-.11C164.69,142.16,164.68,152.16,158.24,152.16Zm227.11,123c-2.58,1.54-5,3.14-7.59,4.61-.81.24-1.63.45-2.45.66-.8,0-1.6,0-2.41,0-.74-.2-1.47-.4-2.21-.62-.85-.47-1.69-1-2.51-1.46-.88-.85-1.73-1.71-2.56-2.6a60,60,0,0,0-6-7.47,62,62,0,0,0-8.49-7.15,112,112,0,0,0,11.73-9.12c3.89-3.5,7-7.71,10.36-11.65l.33-.07c1.42-.14,2.84-.26,4.26-.37h.42a45.13,45.13,0,0,0,5.18-.31c1.7-.06,3.39-.1,5.08-.07.5.54,1,1.09,1.48,1.65,6.42,8.73,12.53,17.71,18.43,26.81A52.31,52.31,0,0,0,385.35,275.19Z"/><path class="cls-4" d="M508.74,245.77c-11.64-19.55-24.13-38.66-37.64-57-5.32-7.21-10.61-14.91-17.18-21.1-10-9.43-20.13-15.33-32.91-20a82.24,82.24,0,0,0-20.42-4.51,46.82,46.82,0,0,0-24-6.5,50.27,50.27,0,0,0-30.31,10.69c-1.27.3-2.54.62-3.8,1a58.7,58.7,0,0,0,.59-13c-1.15-17.43-2.83-34.85-4.45-52.24-1.23-13.13-4.59-24.68-14.21-34.3C316,40.33,302.23,34,290.15,34.54c-12.55.56-25.56,4.68-34.3,14.2a67.51,67.51,0,0,0-5.46,6.81c-3.07-7.67-8.17-13.94-16.36-16.65s-17.25-.71-24.62,3.12c-18,9.35-13.17,29.77-10,45.84,1.14,5.8,1.72,12.54,3.4,18.67l-33.29,5.9c-7.78,1.38-15.59,2.66-23.31,4.37-11.2,2.49-21.48,6.51-32,11.24-17,7.64-31.5,20.22-45.79,31.94a29.52,29.52,0,0,0-5.25,5.83,11.12,11.12,0,0,0-9.72,5.7,40.36,40.36,0,0,0-5.36,15.11C44.21,191,41,196,42.7,202.08c1.84,6.69,9.24,11.35,14.13,15.75a13.6,13.6,0,0,0,4.88,2.82,34.53,34.53,0,0,0,6.7,7.92c17.87,15.35,36,30.71,55.63,43.75a200.24,200.24,0,0,0,25.41,14.34c7.43,3.5,14.71,7,21.53,11.43a136.84,136.84,0,0,1,12.33,12.58c-3.33,9.3-4.55,19.72-1.18,28.94a91,91,0,0,0,13.5,25.19.45.45,0,0,0,0,.11c-2.81,13.13,4.08,22.9,13.57,30.65a128.38,128.38,0,0,0,6.29,16.79A195.79,195.79,0,0,0,225.82,431a13.47,13.47,0,0,0,.33,3.14c2,8.84,4.84,17.66,10.93,24.49,2.25,9.53,5.23,18.86,11.23,26.81l.27.33a34.23,34.23,0,0,0,9.3,20.88c2.31,7.63,10.63,9.93,16.86,6.87.45,0,.91.07,1.39.07,13.43,0,15.19-18.14,5.26-22.87a62.25,62.25,0,0,0-2.42-7c0-5.81.56-11.65,1.11-17.43.94-10,1.59-19.71.83-29.58a48.41,48.41,0,0,0,9.75-5l.3.18c12.88-19.68,45.14,5.8,56.38,21.63l1.84.14a100.4,100.4,0,0,0,10,4.34,11.49,11.49,0,0,0,.29,4.2,11,11,0,0,0,4.74,6.59,64.5,64.5,0,0,1-.81,7.17,17.54,17.54,0,0,0,.09,5.42q-1.1,2.25-2.09,4.59c-2.48,5.87-3.69,12.46-6.59,18.1a17,17,0,0,1-9.76,8.53c-12.57,4.21-10.78,23.45,3.19,23.57,9.86.09,21.86,7.42,29.29-2.34,3.13-4.11,3.21-9.44,3.91-14.39l2.28-16.11a16,16,0,0,0-.59-7.39,70.21,70.21,0,0,1,9.07-15.67c3.37-4.47,6.93-8.79,9.24-13.76,3.94.46,7.88.88,11.78,1.28a134,134,0,0,0,42-2.46A82.35,82.35,0,0,0,474,458.73a21.88,21.88,0,0,0,15.53,15.92c10.19,2.82,18.67-8.57,13.55-17.62l-2-3.48a13.33,13.33,0,0,0-1.14-1.68c.06-.08.13-.15.19-.22a99.32,99.32,0,0,0,10.17-13.95,93,93,0,0,0,9.66-22.79c.73-1.37,1.43-2.75,2.08-4.14,6.17-13,10.9-26.13,13.39-40.31,1.6-9.12,2.71-18.34,3.88-27.52.68-5.36,1.56-10.8,1.58-16.22C541,297.13,523.41,270.38,508.74,245.77Zm-350.5-93.61a4.81,4.81,0,0,1-2.9-.89,5.06,5.06,0,0,1-1.05.1c-6.45,0-6.44-10,0-10a4.7,4.7,0,0,1,2.89.9,5.22,5.22,0,0,1,1.06-.11C164.69,142.16,164.68,152.16,158.24,152.16Zm227.11,123c-2.58,1.54-5,3.14-7.59,4.61-.81.24-1.63.45-2.45.66-.8,0-1.6,0-2.41,0-.74-.2-1.47-.4-2.21-.62-.85-.47-1.69-1-2.51-1.46-.88-.85-1.73-1.71-2.56-2.6a60,60,0,0,0-6-7.47,62,62,0,0,0-8.49-7.15,112,112,0,0,0,11.73-9.12c3.89-3.5,7-7.71,10.36-11.65l.33-.07c1.42-.14,2.84-.26,4.26-.37h.42a45.13,45.13,0,0,0,5.18-.31c1.7-.06,3.39-.1,5.08-.07.5.54,1,1.09,1.48,1.65,6.42,8.73,12.53,17.71,18.43,26.81A52.31,52.31,0,0,0,385.35,275.19Z"/></g><g id="Layer_2" data-name="Layer 2"><path d="M286.74,194.56c-5.7-1.73-5.46-9.81-2.81-14,3.93-6.17,12.13-8.88,18.52-11.58,12.83-5.42,25.46-12.64,34.12-23.83,10.37-13.41,11.41-30.07,10.21-46.4-1.16-15.94-4.55-32-14.57-44.83C314.79,31.57,282.53,24,258.76,41.16c-12.64,9.13-17.09,21.75-20.92,36.27-2,7.6-4.41,15.86-11,20.78-5.4,4-12.3,5.53-18.77,6.83-33.67,6.77-69.45,7.12-101.37,20.78a143.71,143.71,0,0,0-65.35,56.39c-3.45,5.62-8.37,12.66-6.59,19.61,1.73,6.75,8.43,12.38,13.05,17.27a300,300,0,0,0,35.25,31.78,301.08,301.08,0,0,0,40.32,26.23q11,5.92,22.38,10.91c6.83,3,14.33,5.18,20.57,9.33,7.3,4.86,9.4,13.22,10.92,21.35,1.57,8.32,3.13,16.61,5.23,24.82A394.57,394.57,0,0,0,199,392.92c13,32.39,29.48,63.22,42.91,95.4,3.55,8.51,6.55,17.67,5,27-.85,5.06,6.89,7.23,7.74,2.13,2.79-16.7-5.11-32-11.86-46.73-7.15-15.66-14.59-31.19-21.73-46.85-14.3-31.33-27.48-63.48-34.25-97.38-2.88-14.45-4.37-29.27-18.46-37.29-6.8-3.87-14.46-6.24-21.59-9.45s-14-6.64-20.8-10.36A294.45,294.45,0,0,1,51.22,211c-2.53-2.74-5.82-5.63-7.67-8.91-2.37-4.2.26-8.1,2.4-11.86a130.06,130.06,0,0,1,12.83-18.64,137.19,137.19,0,0,1,33-28.94c29.3-18.25,62.86-20.77,96.17-25.83,7.68-1.17,15.32-2.59,22.93-4.15,6.33-1.3,12.79-3,18.34-6.4,13.23-8.19,15-23.53,19.17-37.16a41.31,41.31,0,0,1,30.39-28.38c14.33-3.45,29.41,1.26,40.32,10.93,12.66,11.24,17.77,27.06,19.34,43.53s1.61,34.25-10.08,47.38c-9.9,11.12-23.31,16.23-36.45,22.3-10.69,5-20.83,14.44-17.09,27.36a14.3,14.3,0,0,0,9.77,10.09c5,1.51,7.08-6.24,2.14-7.74Z"/><path d="M335.72,150.36c27.82-15.39,62.29-12,89.46,3.13s47.11,39.86,61.88,66.61c8.41,15.26,15.31,31.28,21.64,47.5s12.57,32.42,17.59,49,8.54,33.61,8,50.94c-.49,16.45-5,32.57-11.86,47.47a200.47,200.47,0,0,1-12.76,23.27Q506,444.11,502,449.71c-2.27,3.21-5.3,6.4-6.33,10.29-2.15,8.06,5.28,10.16,10.49,13.8A31.52,31.52,0,0,1,519,494.39l5.89-4.54a191,191,0,0,0-71.2-26.34v7.74A586,586,0,0,0,513.32,444c4.57-2.41.52-9.35-4.05-6.93a570.48,570.48,0,0,1-57.72,26.47c-3.21,1.26-4.37,7.07,0,7.74a185.42,185.42,0,0,1,69.29,25.54c3.21,2,6.49-1.28,5.9-4.54a39.39,39.39,0,0,0-8.63-18.32,38.27,38.27,0,0,0-7.85-7.07c-3.2-2.17-8.33-3-5.2-7.65,9.32-13.77,18.61-27.16,25.37-42.46,6.62-15,11.07-30.9,11.84-47.34.82-17.67-2.52-35.33-7.44-52.23-5-17.26-11.53-34.12-18.05-50.86-6.45-16.58-13.41-33-21.91-48.66-15-27.64-35.47-53.35-62.86-69.52-30.2-17.83-69-22.07-100.34-4.71-4.52,2.5-.48,9.44,4.05,6.93Z"/><path d="M162.53,133.78c-10.36-.26-20.37,6.86-22.81,17.12s3.71,21.59,13.45,25.59c12,4.91,22.1-3.26,23.73-15.22,1.46-10.72.82-28.45-13.38-29.3-5.16-.3-5.14,7.73,0,8,7.5.44,6.29,16.53,5.26,21.44-1.77,8.39-9.62,10.93-16.18,5.41-10.67-9-3.58-25.38,9.93-25.05,5.17.13,5.17-7.9,0-8Z"/><path d="M159.93,163.35c-4.16-.47-4.83-7.21-5.34-10.27-.85-5.09-8.59-2.93-7.74,2.13,1.28,7.66,4.45,15.19,13.08,16.18,2.16.24,4-2,4-4,0-2.38-1.85-3.77-4-4Z"/><path d="M251.35,364.74c6.87,31.09,37.51,45.67,62.45,60.29,14.93,8.75,28.9,19.46,38.79,33.9,5.3,7.74,7.08,15.74,4.69,24.9a84.73,84.73,0,0,1-10.5,23.2c-2.91,4.59-5.78,5.89-11.12,6.52a17.73,17.73,0,0,0-9.52,3.54,17.46,17.46,0,0,0-6,17.86l3.87-5.08-.72.08,2.84,1.17.63,2.28,2.22-.31a22.59,22.59,0,0,1,4.72.19A44.63,44.63,0,0,1,341,535c5.11,1.54,10.06,3.66,15.28,4.79,7.13,1.54,15.27,1.8,21.78-2,17.15-10,4.77-30.38,9-45.18,4.1-14.35,20.35-22.35,30.32-32.2,13.54-13.39,15.33-33.12,27.53-47.31,13.47-15.65,33.2-27.7,34.63-50.34.32-5.16-7.71-5.14-8,0-1.33,21.08-23.27,32.84-35,48-6.19,8-9.31,17.29-13.28,26.47a58.12,58.12,0,0,1-15.86,21.48c-11,9.64-25.65,18.62-28.62,34.15-1.68,8.86,1.19,17.48,1,26.32-.24,11.11-9.16,14.77-19.07,13.27-11.38-1.71-21.59-8.54-33.47-7.2-3.72.42-7.11,2-8.17,5.95-.92,3.4,1.08,7.15,5,6.73,2.62-.28,4.53-2.33,3.87-5.08a9.26,9.26,0,0,1,2.6-8.9c3.14-3,7.58-2.17,11.48-3.17,6.25-1.59,10.2-6.73,13.2-12.11,7.49-13.48,15.21-29.84,9-45.26-5.77-14.4-19.24-26.77-31.5-35.73-13.58-9.93-29-16.84-43-26.14s-26.82-21.95-30.56-38.9c-1.12-5.05-8.86-2.91-7.75,2.13Z"/><path d="M279.47,437.92a103.85,103.85,0,0,0,17.8,85l1.44-5.49c-1.18.85-5.07-3.18-5.88-3.77a24.8,24.8,0,0,0-5.95-3.16,31.19,31.19,0,0,0-14.5-1.49c-11.35,1.37-20.81,8.06-29.73,14.74l5.9,4.54a45.21,45.21,0,0,1,6.69-15.12c2.91-4.29-4.05-8.31-6.94-4.05a51.38,51.38,0,0,0-7.5,17c-.73,3.07,2.91,6.77,5.9,4.53,9.11-6.81,19.34-14.6,31.35-13.88,5.72.35,9.16,2.92,13.58,6.15,3.35,2.46,7.43,4.1,11.13,1.41,1.6-1.16,2.84-3.62,1.44-5.49a96.15,96.15,0,0,1-17-78.85c1.15-5-6.59-7.18-7.74-2.14Z"/><path d="M201.76,110.83c1.91-9.32.41-18.38-1.95-27.47S192,61.29,196,52c3.59-8.35,17.13-10.9,25.12-11.56,10.16-.83,20.72,2.28,25.43,12,2.25,4.65,9.18.58,6.93-4.06-4.68-9.68-14.72-15-25.17-16-10.81-.95-24.58,1.78-33.36,8.5-9.46,7.25-8.79,19.1-6.63,29.72,2.53,12.5,8.35,25.09,5.7,38-1,5,6.7,7.21,7.74,2.14Z"/><path d="M151,159.34A14.71,14.71,0,0,0,168,153.92c3.5-5.31,1.89-14.74-6.05-14l2,7.49.84-.36-3.09.4c2,.29,2.66,5.12,2.81,6.63a15.43,15.43,0,0,1-.11,3.9,14.69,14.69,0,0,1-.6,2.37c2.36,1.8,3.36,2,3,.61.46-1.54-2.09-4.34-3.07-5.17a9.68,9.68,0,0,0-6.27-2.24c-5.17-.18-5.16,7.86,0,8,1.94.07,1.78,3.11,2.7,4.41a5.42,5.42,0,0,0,5,2.34c4.74-.45,6.6-5.37,7.18-9.44,1-7-2.26-22.78-12.43-18.42-3.62,1.55-1.83,7.86,2,7.48,0,0-1.11,2.09-1.3,2.28a6.77,6.77,0,0,1-2.28,1.49,7.1,7.1,0,0,1-5.19-.16c-4.87-1.75-7,6-2.13,7.75Z"/></g><g id="Layer_3" data-name="Layer 3"><path class="cls-5" d="M297.5,508.47q22.92-1.43,45.88-.76c7.73.22,7.72-11.78,0-12q-23-.68-45.88.76c-7.67.48-7.73,12.48,0,12Z"/><path class="cls-5" d="M388.41,503.05c45.5-2.87,77.56-39.14,95.82-77.93,18.49-39.28,32.24-90,5.45-129.06-12.92-18.83-34.83-31.65-58.05-30.13-7.67.5-7.73,12.5,0,12,18.1-1.19,35.38,7.83,46.25,22.16,11.68,15.4,15.65,35.44,14.62,54.41-1.11,20.77-8.07,41.08-16.51,59.93-8.07,18-18.14,35.5-32.17,49.59-14.79,14.85-34.22,25.69-55.41,27-7.67.48-7.73,12.48,0,12Z"/><path class="cls-6" d="M321.23,290.75c19.27-40.22,45.87-79.24,85.33-100a99.43,99.43,0,0,1,24.77-9.39c11.46-2.53,23.34-2.48,35.05-1.67,51.6,3.56,104.81,24.1,134.64,66.36,13.64,19.32,21.65,42,28.79,64.51-31.76-18.21-70.22-19-106.83-19.29l-199.32-1.64"/><path class="cls-5" d="M326.41,293.77c11.31-23.48,24.68-46.3,42.33-65.62,17.8-19.48,41.23-37.18,67.82-41.72,13.75-2.35,28.2-1.27,42,.41a216,216,0,0,1,37.46,8c23.55,7.27,46.09,19,64,36.08,23.12,22,34.52,51.38,44,81.2l8.82-6.77c-32.9-18.52-71.33-19.77-108.15-20.1q-64.14-.57-128.28-1l-72.75-.6c-7.72-.06-7.73,11.94,0,12l125.57,1,62.78.52c18.65.15,37.35.06,55.93,1.83,20.47,1.95,40.8,6.57,58.84,16.73,4.39,2.47,10.44-1.65,8.81-6.78-9.07-28.55-19.8-57-40.26-79.52-18-19.85-41.64-33.86-66.69-43-25.86-9.4-55.1-14.69-82.66-13.07-29.51,1.73-56,17.28-77,37.33-22.7,21.64-39.42,48.9-52.94,77-3.33,6.92,7,13,10.36,6Z"/><path class="cls-5" d="M390.42,513.89C427,523.28,464.71,512,496,492.56s59-45.61,83-73.41c5-5.82-3.43-14.34-8.49-8.49C548,436.85,522.15,461.52,493,480.3s-64.59,30.93-99.35,22c-7.48-1.92-10.67,9.65-3.19,11.58Z"/><path class="cls-6" d="M534,350.71a89,89,0,0,1,119,29.8c5.26,8.29,9.1,17.4,12.42,26.64a272,272,0,0,1,15.23,111.67c-11.22-19.69-31.85-31.81-47.55-48.14-13.55-14.09-23.44-31.37-36.87-45.58-13.8-14.61-31-25.57-48.17-35.94-11.43-6.89-23.4-14-30.57-25.25l10.27-11"/><path class="cls-5" d="M537,355.89c29-16.07,65.41-13.67,91.71,6.75,13.39,10.39,22.5,24.41,28.65,40.07a263.76,263.76,0,0,1,14.47,52.79,269,269,0,0,1,2.81,63.32l11.18-3c-7.1-12.11-17.27-21.66-27.84-30.71-11-9.39-21.51-18.71-30.51-30.06-9.75-12.3-18.33-25.57-29.48-36.7-10.81-10.81-23.42-19.7-36.31-27.83-13.56-8.55-29.89-15.83-39-29.61l-.94,7.27,10.28-11c5.27-5.64-3.2-14.15-8.49-8.49l-10.27,11c-1.74,1.86-2.43,5-.94,7.27,8,12,19.91,19.67,32,27,13.19,8,26.39,16.11,38,26.25,12,10.46,21.22,23.13,30.77,35.77a201.67,201.67,0,0,0,29.67,31.92c11.94,10.26,24.55,20.2,32.63,34,3.15,5.39,10.77,2.72,11.18-3,2.86-40.57-3-82.31-18-120.16-6.8-17.05-16.38-32.42-30.79-44a95.27,95.27,0,0,0-46.74-20.47A97.07,97.07,0,0,0,531,345.53c-6.76,3.74-.71,14.11,6.06,10.36Z"/><path class="cls-5" d="M525.87,371.67c25.73-6.23,52,2.76,72.81,18,22.52,16.5,37.59,41.06,49.16,66,6.92,14.93,12.66,30.37,18.39,45.79,2.67,7.18,14.27,4.07,11.57-3.19-20.45-55-46.17-117.58-107.6-136.48a89.61,89.61,0,0,0-47.52-1.72c-7.5,1.81-4.33,13.39,3.19,11.57Z"/><path class="cls-5" d="M581.49,416.72c5.27-10.12,15.28-16.44,19-27.59,2.44-7.35-9.15-10.5-11.58-3.19-3.21,9.68-13.09,15.74-17.77,24.72-3.56,6.84,6.79,12.91,10.36,6.06Z"/><g id="Layer_7" data-name="Layer 7"><path class="cls-7" d="M419.56,207.4c-10.66,5.67-21.34,11.49-30.62,19.3-4.22,3.55-21.58,18.55-12.8,24.11,2.41,1.53,6.44,1.93,9.16,2.67,3.07.83,6.39,2.15,9.54,2.54,4.23.53,5-2.28,5.39-5.86a55.61,55.61,0,0,1,17.34-34.88l0,0,5-2.67C426,210.77,423,205.59,419.56,207.4Z"/></g></g><g id="Layer_5" data-name="Layer 5"><path class="cls-8" d="M198.82,469.21c-.35-8.92-7.6-16.91-16.68-17.22a17,17,0,0,0-17,13c-8-4.25-16.86-6.83-26-5.72-10.46,1.27-20.39,7.69-24.77,17.46-4.9,10.95-1.79,23.42,7.1,31.4,8.67,7.78,20.38,10.12,31.73,10.31,9.38.16,19.35-2,26.18-8.82a23,23,0,0,0,6.16-19.93,12.22,12.22,0,0,0,1.61-.82C194.22,484.59,199.16,477.7,198.82,469.21Z"/><path class="cls-8" d="M212.25,407.68a21.61,21.61,0,0,0-25.2-4.8c-19.53,9.62-2.92,45.19,17.46,37.85a14.61,14.61,0,0,0,3.1-1.58,13.57,13.57,0,0,0,6.61-5.19C219.78,426,218.56,414.78,212.25,407.68Z"/><path class="cls-8" d="M308.83,389.2c-4.8-2.45-10.07-3.86-15-6-6.69-2.92-13.22-5.17-20.42-2.48-9.62,3.6-14,12.13-14.38,21.27a28,28,0,0,0-2.46,6.12c-3.26,12.14,1.76,24.16,9.44,33.42,7,8.4,17,16.08,28.26,16.72,9.31.53,17.34-4.6,21.74-12.21,5.31-5.72,7.76-15.41,8.82-22.91C326.79,409.38,321.62,395.74,308.83,389.2Z"/><path class="cls-9" d="M80.43,509.2a17,17,0,0,0-15.2,16.41c-.28,19.47,37.68,25.07,40.3,6.12a11.64,11.64,0,0,0,0-3.12A12.23,12.23,0,0,0,104,521C99.55,512.86,89.32,508.08,80.43,509.2Z"/><path class="cls-8" d="M278.52,509.1a35.51,35.51,0,0,0-8-15.58c-9.43-10.61-24.68-14.25-38.27-11.32-16.9,3.65-24.85,20.34-21,36.43.11.44.25.86.37,1.3a9.54,9.54,0,0,0-1.08,0c-11.51,0-20.75,11.68-17.4,23a22.37,22.37,0,0,0,23.19,15.51c8.22-.82,15.63-5.43,18.88-12.64,1.89.91,3.82,1.74,5.77,2.45,13.32,4.84,29.88,2.82,37.38-10.51C283.26,528.89,282.39,518.3,278.52,509.1Zm-26.91,11.18a1.92,1.92,0,0,0,0-.22C254.36,522.81,250.93,520,251.61,520.28Z"/><g id="Layer_8" data-name="Layer 8"><path class="cls-2" d="M203.13,412.86a6,6,0,0,0-6.28-1.39,5.81,5.81,0,0,0-6.39,2.78,10.86,10.86,0,0,0,12.1,15.49c2.83-.71,4.06-3.16,4.41-5.78A14.34,14.34,0,0,0,203.13,412.86Z"/><path class="cls-2" d="M267.9,508.53c-2.51-8.91-10.47-15.88-19.95-16.11s-17.58,6.37-20.7,15.13c-2.42,6.77,7.41,9.95,10.89,4.57a20.14,20.14,0,0,0,7.21,2.14c5.57.75,11.18,1.25,16.76,1.87C266.05,516.56,268.86,512,267.9,508.53Z"/><path class="cls-2" d="M287,407.85a5.38,5.38,0,0,0-2-.67c.8-4.25-3.87-9.33-9-6.65-7.26,3.81-9.95,12.75-7.8,20.4,1.28,4.58,4.16,8.52,7.24,12.05s6.34,7.28,10.89,8.46c8.39,2.18,15.49-5.92,15.79-13.77C302.48,418.24,294.21,412.15,287,407.85Z"/><path class="cls-2" d="M156.16,471.39c-6.69-3.23-12.6,6.32-6.71,10q-.1,6.21-.22,12.41c-.06,3.51-.46,7.33,1.2,10.57,3.35,6.58,12.19,6.66,16.93,1.68C177.65,495.24,167.21,476.72,156.16,471.39Z"/><path class="cls-2" d="M91.23,515.28c-2.63-1.42-6.63-1.23-7.81,1.44a3.48,3.48,0,0,1-.22.43,4.4,4.4,0,0,1-.5.21,4.61,4.61,0,0,0-2.56,3.15,5.49,5.49,0,0,0,.49,3.42,6.72,6.72,0,0,0,6.77,3.66h.1a4,4,0,0,1,.44.27,6.53,6.53,0,0,0,4.43.84,5,5,0,0,0,3.38-2.28c1.17-2.26.52-4.72-1.39-6.58a5.19,5.19,0,0,0-.24-1.1A6.55,6.55,0,0,0,91.23,515.28Z"/></g><path class="cls-5" d="M249.63,512.57c-15.45,0-15.47,24,0,24S265.09,512.57,249.63,512.57Z"/><path class="cls-5" d="M288.57,397.24c-15.45,0-15.47,24,0,24S304,397.24,288.57,397.24Z"/><path class="cls-5" d="M139.93,477.85c-15.44,0-15.47,24,0,24S155.4,477.85,139.93,477.85Z"/><path class="cls-5" d="M194.14,411.1c-7.72,0-7.74,12,0,12S201.87,411.1,194.14,411.1Z"/><path class="cls-5" d="M208.09,530.44c-7.72,0-7.74,12,0,12S215.82,530.44,208.09,530.44Z"/><path class="cls-5" d="M75.43,524.48c-3.39,5.77,6.95,11.86,10.35,6.07S78.83,518.69,75.43,524.48Z"/></g></svg>